/* XPM */
static char *xpdf[] = {
/* columns rows colors chars-per-pixel */
"32 32 139 2",
"   c #003D000F000F",
".  c #0CE40CE00CE0",
"X  c #1E7600000000",
"o  c #138D13B413B4",
"O  c #19E816001600",
"+  c #1B021CF31CF3",
"@  c #26B900000000",
"#  c #2D20004E004E",
"$  c #2DCD0F260F26",
"%  c #342B0C290C29",
"&  c #39F700000000",
"*  c #35BB16E016E0",
"=  c #3F3D10DC10DC",
"-  c #23C023C023C0",
";  c #2DB72DF22DF2",
":  c #32B02C2C2C2C",
">  c #331533153315",
",  c #3D4F3DAB3DAB",
"<  c #412900000000",
"1  c #4E4400000000",
"2  c #438A16751675",
"3  c #552E00090009",
"4  c #589D00000000",
"5  c #553814381438",
"6  c #466A40084008",
"7  c #578D29C429C4",
"8  c #63DD00000000",
"9  c #706515B015B0",
"0  c #708517F717F7",
"q  c #71D819011901",
"w  c #42B142B242B2",
"e  c #4AB94AB64AB6",
"r  c #5F30420C420C",
"t  c #52F852745274",
"y  c #553A59885988",
"u  c #5C0B535A535A",
"i  c #599959D559D5",
"p  c #618059D459D4",
"a  c #7FA2562B562B",
"s  c #63F465206520",
"d  c #699169916991",
"f  c #7B317B717B71",
"g  c #AE2F00880088",
"h  c #B26E00000000",
"j  c #B8C604F204F2",
"k  c #B90308810881",
"l  c #B13817391739",
"z  c #BFF611DD11DD",
"x  c #A7343C313C31",
"c  c #B6A136E436E4",
"v  c #B14F39523952",
"b  c #A7CA44514451",
"n  c #AC7B5BE65BE6",
"m  c #ABF678C378C3",
"M  c #C79F00000000",
"N  c #CD5500170017",
"B  c #C4B212E112E1",
"V  c #CED416B516B5",
"C  c #DD5300000000",
"Z  c #DCAC0C610C61",
"A  c #D83D139D139D",
"S  c #DCCB13C113C1",
"D  c #D90D194E194E",
"F  c #D87234623462",
"G  c #D84A3CFC3CFC",
"H  c #DED13D643D64",
"J  c #E229000B000B",
"K  c #E2CE09930993",
"L  c #E45115631563",
"P  c #E54D19161916",
"I  c #E2BC21232123",
"U  c #CE1D46944694",
"Y  c #CD8C53CB53CB",
"T  c #D70F42BB42BB",
"R  c #DA5454E754E7",
"E  c #D9295CAA5CAA",
"W  c #CAFD63A163A1",
"Q  c #C9846E7E6E7E",
"!  c #DEBA65C865C8",
"~  c #DD2D7F957F95",
"^  c #E4DA44214421",
"/  c #E3A452AE52AE",
"(  c #ED3959C459C4",
")  c #E22F650D650D",
"_  c #845284888488",
"`  c #86F188C288C2",
"'  c #8DE18DEE8DEE",
"]  c #935A941B941B",
"[  c #9CE89CF49CF4",
"{  c #A7A8850E850E",
"}  c #AA8084FC84FC",
"|  c #AFF888F088F0",
" . c #B29381928192",
".. c #B6EE8A448A44",
"X. c #A3FDA3EBA3EB",
"o. c #AB35AC0CAC0C",
"O. c #B246B246B246",
"+. c #B969B4DDB4DD",
"@. c #BB90BB8FBB8F",
"#. c #CD068F7A8F7A",
"$. c #CDC0936A936A",
"%. c #D20085B385B3",
"&. c #D6699ED29ED2",
"*. c #DC829C599C59",
"=. c #CD42A62FA62F",
"-. c #CE21ABF7ABF7",
";. c #CD9AB2CBB2CB",
":. c #CD0CC08AC08A",
">. c #D8C2A77BA77B",
",. c #EAE89F659F65",
"<. c #EC71BE37BE37",
"1. c #F4BBA0EAA0EA",
"2. c #F5C9AB37AB37",
"3. c #FB7DAD09AD09",
"4. c #C526C505C505",
"5. c #CD07CC65CC65",
"6. c #D032D33DD33D",
"7. c #D630C522C522",
"8. c #DA43C538C538",
"9. c #DFD0CAA7CAA7",
"0. c #D260D3EFD3EF",
"q. c #D4D9D990D990",
"w. c #DB0BDBC3DBC3",
"e. c #E08DE8F0E8F0",
"r. c #E76CC6A0C6A0",
"t. c #E78BD27BD27B",
"y. c #EFD9D5B1D5B1",
"u. c #EAC6DCDCDCDC",
"i. c #E5DCE474E474",
"p. c #E7BFEA2AEA2A",
"a. c #ED83E7CCE7CC",
"s. c #EBD0EBC8EBC8",
"d. c #EE64F2ADF2AD",
"f. c #F714E461E461",
"g. c #F915E48FE48F",
"h. c #FD3EEA64EA64",
"j. c #F276F27AF27A",
"k. c #FCA4F400F400",
"l. c #FFF3FFF3FFF3",
/* pixels */
"                                                                ",
"                                                                ",
"< 1 1 3 3 &                                           @ 1 1 @   ",
"8 N J J J N 4                                       # g J h #   ",
"  4 N J J J N 4                     O w w o     o 6 b A h #     ",
"    4 N J C J N 4                   , w.5.>   O X.4.7.>.%       ",
"      4 N J J J N 4                   O.O.    ` y.F ! q.O       ",
"        4 N J J J N 4               - 0.o.  # ;.2.h 2 ,         ",
"          4 N J J J N 4             w s.] @ x p.| #             ",
"            4 N J J J N 4           w p.} g T p._               ",
"              3 N J J J N 4         e d.%.C U s.f               ",
"            . . 3 M J J J N 4 X     i k.H g a s.>               ",
"          ; @.f t n / D J J B 6 y u  .h.l 7 ] j.d t .           ",
"        > @.l.w.] s 6.*.K A #.8.W ! u.a.* ; [ d.d t             ",
"      o _ 4.l.d     d h.A Q e.R C A r.6.o . +.5.o               ",
"        + _ j.e     i s.0 &.<.A J A 8.4.. . 4.4.o               ",
"          _ s.w     i p.O o.3.C J S t.4.. o 5.@..               ",
"          ] s.w   . ] 6.= -.2.C J P h.~ 4 O i.f                 ",
"          X.j.w   w w...j ,.r.c N ^ k.( N 0 s.i                 ",
"          o.s.] ' o...z J c 4.5.$.=.f.1.K ) g.X..               ",
"        O 4.O.O + 2 k J g # o + + 5 V P K L D q                 ",
"        w s.]   # g J h #           4 N J J C N 4               ",
"        w p._ @ h J g #               4 N J J J N 4             ",
"        e d.} g J h #                   4 N J J J N 4           ",
"        i k.Y J g #                       4 N J J J N 4         ",
"        s h.I g #                           4 N J J J N 4       ",
"      $ +.s.m #                               4 N J J J N 4     ",
"    # g T b :                                   4 N J J J N 4   ",
"  # h J g #                                       4 N J J J N < ",
"  @ 1 1 @                                           & 1 3 1 3 X ",
"                                                                ",
"                                                                "
};
